<mxfile host="app.diagrams.net" agent="Mozilla/5.0 (Windows NT 10.0; Win64; x64; rv:109.0) Gecko/20100101 Firefox/115.0" version="24.7.7">
  <diagram name="Página-1" id="Uy345dQ23MLo3aCPPVrj">
    <mxGraphModel dx="2593" dy="990" grid="1" gridSize="10" guides="1" tooltips="1" connect="1" arrows="1" fold="1" page="0" pageScale="1" pageWidth="827" pageHeight="1169" math="0" shadow="0">
      <root>
        <mxCell id="0" />
        <mxCell id="1" parent="0" />
        <mxCell id="cvbuqsYRhaTz-hlydLSl-148" value="" style="rounded=0;whiteSpace=wrap;html=1;fillColor=none;" vertex="1" parent="1">
          <mxGeometry x="-130" y="180" width="510" height="490" as="geometry" />
        </mxCell>
        <mxCell id="cvbuqsYRhaTz-hlydLSl-95" style="edgeStyle=orthogonalEdgeStyle;orthogonalLoop=1;jettySize=auto;html=1;" edge="1" parent="1" source="cvbuqsYRhaTz-hlydLSl-1" target="cvbuqsYRhaTz-hlydLSl-4">
          <mxGeometry relative="1" as="geometry" />
        </mxCell>
        <mxCell id="cvbuqsYRhaTz-hlydLSl-1" value="" style="dashed=0;outlineConnect=0;html=1;align=center;labelPosition=center;verticalLabelPosition=bottom;verticalAlign=top;shape=mxgraph.weblogos.apple;fillColor=#1B1C1C;strokeColor=none" vertex="1" parent="1">
          <mxGeometry x="-440" y="290" width="62.400000000000006" height="76.2" as="geometry" />
        </mxCell>
        <mxCell id="cvbuqsYRhaTz-hlydLSl-96" style="edgeStyle=orthogonalEdgeStyle;orthogonalLoop=1;jettySize=auto;html=1;" edge="1" parent="1" source="cvbuqsYRhaTz-hlydLSl-2" target="cvbuqsYRhaTz-hlydLSl-4">
          <mxGeometry relative="1" as="geometry" />
        </mxCell>
        <mxCell id="cvbuqsYRhaTz-hlydLSl-2" value="" style="dashed=0;outlineConnect=0;html=1;align=center;labelPosition=center;verticalLabelPosition=bottom;verticalAlign=top;shape=mxgraph.weblogos.android;fillColor=#A4CA39;strokeColor=none" vertex="1" parent="1">
          <mxGeometry x="-440" y="510" width="67.60000000000001" height="80" as="geometry" />
        </mxCell>
        <mxCell id="cvbuqsYRhaTz-hlydLSl-3" value="HLA" style="shape=umlFrame;whiteSpace=wrap;html=1;pointerEvents=0;" vertex="1" parent="1">
          <mxGeometry x="-480" y="150" width="1180" height="560" as="geometry" />
        </mxCell>
        <mxCell id="cvbuqsYRhaTz-hlydLSl-98" style="edgeStyle=orthogonalEdgeStyle;orthogonalLoop=1;jettySize=auto;html=1;" edge="1" parent="1" source="cvbuqsYRhaTz-hlydLSl-4" target="cvbuqsYRhaTz-hlydLSl-97">
          <mxGeometry relative="1" as="geometry" />
        </mxCell>
        <mxCell id="cvbuqsYRhaTz-hlydLSl-4" value="Amazon API Gateway" style="sketch=0;outlineConnect=0;fontColor=#232F3E;gradientColor=none;strokeColor=#ffffff;fillColor=#232F3E;dashed=0;verticalLabelPosition=middle;verticalAlign=bottom;align=center;html=1;whiteSpace=wrap;fontSize=10;fontStyle=1;spacing=3;shape=mxgraph.aws4.productIcon;prIcon=mxgraph.aws4.api_gateway;" vertex="1" parent="1">
          <mxGeometry x="-219.99977966551614" y="388.16347394540946" width="51.76533050172551" height="103.66997518610422" as="geometry" />
        </mxCell>
        <mxCell id="cvbuqsYRhaTz-hlydLSl-17" value="BaseTransacional" style="outlineConnect=0;dashed=0;verticalLabelPosition=bottom;verticalAlign=top;align=center;html=1;shape=mxgraph.aws3.dynamo_db;fillColor=#2E73B8;gradientColor=none;" vertex="1" parent="1">
          <mxGeometry x="460" y="293.65" width="40" height="47" as="geometry" />
        </mxCell>
        <mxCell id="cvbuqsYRhaTz-hlydLSl-21" value="BaseRelatorios" style="outlineConnect=0;dashed=0;verticalLabelPosition=bottom;verticalAlign=top;align=center;html=1;shape=mxgraph.aws3.dynamo_db;fillColor=#2E73B8;gradientColor=none;" vertex="1" parent="1">
          <mxGeometry x="460" y="408.26" width="40" height="47" as="geometry" />
        </mxCell>
        <mxCell id="cvbuqsYRhaTz-hlydLSl-22" value="BaseConciliacao" style="outlineConnect=0;dashed=0;verticalLabelPosition=bottom;verticalAlign=top;align=center;html=1;shape=mxgraph.aws3.dynamo_db;fillColor=#2E73B8;gradientColor=none;" vertex="1" parent="1">
          <mxGeometry x="460" y="539.35" width="40" height="47" as="geometry" />
        </mxCell>
        <mxCell id="cvbuqsYRhaTz-hlydLSl-97" value="Elastic Load Balancing" style="sketch=0;outlineConnect=0;fontColor=#232F3E;gradientColor=none;strokeColor=#ffffff;fillColor=#232F3E;dashed=0;verticalLabelPosition=middle;verticalAlign=bottom;align=center;html=1;whiteSpace=wrap;fontSize=10;fontStyle=1;spacing=3;shape=mxgraph.aws4.productIcon;prIcon=mxgraph.aws4.elastic_load_balancing;" vertex="1" parent="1">
          <mxGeometry x="-100" y="388.16" width="60" height="105" as="geometry" />
        </mxCell>
        <mxCell id="cvbuqsYRhaTz-hlydLSl-100" style="edgeStyle=orthogonalEdgeStyle;orthogonalLoop=1;jettySize=auto;html=1;" edge="1" parent="1" source="cvbuqsYRhaTz-hlydLSl-97" target="cvbuqsYRhaTz-hlydLSl-52">
          <mxGeometry relative="1" as="geometry">
            <mxPoint x="-100" y="509.25923076923095" as="sourcePoint" />
            <Array as="points">
              <mxPoint x="-10" y="439" />
              <mxPoint x="-10" y="439" />
            </Array>
          </mxGeometry>
        </mxCell>
        <mxCell id="cvbuqsYRhaTz-hlydLSl-137" style="edgeStyle=orthogonalEdgeStyle;orthogonalLoop=1;jettySize=auto;html=1;" edge="1" parent="1" source="cvbuqsYRhaTz-hlydLSl-39" target="cvbuqsYRhaTz-hlydLSl-17">
          <mxGeometry relative="1" as="geometry" />
        </mxCell>
        <mxCell id="cvbuqsYRhaTz-hlydLSl-140" style="edgeStyle=orthogonalEdgeStyle;orthogonalLoop=1;jettySize=auto;html=1;entryX=0;entryY=0.5;entryDx=0;entryDy=0;startArrow=classic;startFill=1;" edge="1" parent="1" source="cvbuqsYRhaTz-hlydLSl-39" target="cvbuqsYRhaTz-hlydLSl-125">
          <mxGeometry relative="1" as="geometry">
            <Array as="points">
              <mxPoint x="285" y="230" />
              <mxPoint x="600" y="230" />
            </Array>
          </mxGeometry>
        </mxCell>
        <mxCell id="cvbuqsYRhaTz-hlydLSl-39" value="Transacional" style="sketch=0;outlineConnect=0;fontColor=#232F3E;gradientColor=none;strokeColor=#ffffff;fillColor=#232F3E;dashed=0;verticalLabelPosition=middle;verticalAlign=bottom;align=center;html=1;whiteSpace=wrap;fontSize=10;fontStyle=1;spacing=3;shape=mxgraph.aws4.productIcon;prIcon=mxgraph.aws4.eks;" vertex="1" parent="1">
          <mxGeometry x="250" y="273.55" width="70" height="87.2" as="geometry" />
        </mxCell>
        <mxCell id="cvbuqsYRhaTz-hlydLSl-138" style="edgeStyle=orthogonalEdgeStyle;orthogonalLoop=1;jettySize=auto;html=1;" edge="1" parent="1" source="cvbuqsYRhaTz-hlydLSl-45" target="cvbuqsYRhaTz-hlydLSl-21">
          <mxGeometry relative="1" as="geometry" />
        </mxCell>
        <mxCell id="cvbuqsYRhaTz-hlydLSl-45" value="Relatórios" style="sketch=0;outlineConnect=0;fontColor=#232F3E;gradientColor=none;strokeColor=#ffffff;fillColor=#232F3E;dashed=0;verticalLabelPosition=middle;verticalAlign=bottom;align=center;html=1;whiteSpace=wrap;fontSize=10;fontStyle=1;spacing=3;shape=mxgraph.aws4.productIcon;prIcon=mxgraph.aws4.eks;" vertex="1" parent="1">
          <mxGeometry x="250" y="389.25" width="70" height="87.2" as="geometry" />
        </mxCell>
        <mxCell id="cvbuqsYRhaTz-hlydLSl-139" style="edgeStyle=orthogonalEdgeStyle;orthogonalLoop=1;jettySize=auto;html=1;" edge="1" parent="1" source="cvbuqsYRhaTz-hlydLSl-46" target="cvbuqsYRhaTz-hlydLSl-22">
          <mxGeometry relative="1" as="geometry" />
        </mxCell>
        <mxCell id="cvbuqsYRhaTz-hlydLSl-144" style="edgeStyle=orthogonalEdgeStyle;orthogonalLoop=1;jettySize=auto;html=1;entryX=0.75;entryY=1;entryDx=0;entryDy=0;startArrow=classic;startFill=1;" edge="1" parent="1" source="cvbuqsYRhaTz-hlydLSl-46" target="cvbuqsYRhaTz-hlydLSl-125">
          <mxGeometry relative="1" as="geometry">
            <Array as="points">
              <mxPoint x="285" y="493" />
              <mxPoint x="440" y="493" />
            </Array>
          </mxGeometry>
        </mxCell>
        <mxCell id="cvbuqsYRhaTz-hlydLSl-46" value="Conciliação" style="sketch=0;outlineConnect=0;fontColor=#232F3E;gradientColor=none;strokeColor=#ffffff;fillColor=#232F3E;dashed=0;verticalLabelPosition=middle;verticalAlign=bottom;align=center;html=1;whiteSpace=wrap;fontSize=10;fontStyle=1;spacing=3;shape=mxgraph.aws4.productIcon;prIcon=mxgraph.aws4.eks;" vertex="1" parent="1">
          <mxGeometry x="250" y="519.2500000000001" width="70" height="87.2" as="geometry" />
        </mxCell>
        <mxCell id="cvbuqsYRhaTz-hlydLSl-121" style="edgeStyle=orthogonalEdgeStyle;orthogonalLoop=1;jettySize=auto;html=1;" edge="1" parent="1" source="cvbuqsYRhaTz-hlydLSl-52" target="cvbuqsYRhaTz-hlydLSl-39">
          <mxGeometry relative="1" as="geometry">
            <Array as="points">
              <mxPoint x="90" y="290" />
            </Array>
          </mxGeometry>
        </mxCell>
        <mxCell id="cvbuqsYRhaTz-hlydLSl-122" style="edgeStyle=orthogonalEdgeStyle;orthogonalLoop=1;jettySize=auto;html=1;" edge="1" parent="1" target="cvbuqsYRhaTz-hlydLSl-45">
          <mxGeometry relative="1" as="geometry">
            <mxPoint x="130" y="431.78571428571445" as="sourcePoint" />
            <mxPoint x="250" y="430.0000000000002" as="targetPoint" />
            <Array as="points">
              <mxPoint x="190" y="432" />
              <mxPoint x="190" y="432" />
            </Array>
          </mxGeometry>
        </mxCell>
        <mxCell id="cvbuqsYRhaTz-hlydLSl-123" style="edgeStyle=orthogonalEdgeStyle;orthogonalLoop=1;jettySize=auto;html=1;" edge="1" parent="1" source="cvbuqsYRhaTz-hlydLSl-52" target="cvbuqsYRhaTz-hlydLSl-46">
          <mxGeometry relative="1" as="geometry">
            <Array as="points">
              <mxPoint x="95" y="563" />
            </Array>
          </mxGeometry>
        </mxCell>
        <mxCell id="cvbuqsYRhaTz-hlydLSl-52" value="BFF" style="sketch=0;outlineConnect=0;fontColor=#232F3E;gradientColor=none;strokeColor=#ffffff;fillColor=#232F3E;dashed=0;verticalLabelPosition=middle;verticalAlign=bottom;align=center;html=1;whiteSpace=wrap;fontSize=10;fontStyle=1;spacing=3;shape=mxgraph.aws4.productIcon;prIcon=mxgraph.aws4.eks;" vertex="1" parent="1">
          <mxGeometry x="60" y="388.16" width="70" height="87.2" as="geometry" />
        </mxCell>
        <mxCell id="cvbuqsYRhaTz-hlydLSl-135" value="" style="group" vertex="1" connectable="0" parent="1">
          <mxGeometry x="580" y="290" width="40" height="270" as="geometry" />
        </mxCell>
        <mxCell id="cvbuqsYRhaTz-hlydLSl-125" value="" style="rounded=1;whiteSpace=wrap;html=1;rotation=90;fillColor=none;" vertex="1" parent="cvbuqsYRhaTz-hlydLSl-135">
          <mxGeometry x="-115" y="115" width="270" height="40" as="geometry" />
        </mxCell>
        <mxCell id="cvbuqsYRhaTz-hlydLSl-126" value="" style="verticalLabelPosition=bottom;shadow=0;dashed=0;align=center;html=1;verticalAlign=top;strokeWidth=1;shape=mxgraph.mockup.misc.mail2;strokeColor=#999999;" vertex="1" parent="cvbuqsYRhaTz-hlydLSl-135">
          <mxGeometry x="5" y="15" width="30" height="20" as="geometry" />
        </mxCell>
        <mxCell id="cvbuqsYRhaTz-hlydLSl-127" value="" style="verticalLabelPosition=bottom;shadow=0;dashed=0;align=center;html=1;verticalAlign=top;strokeWidth=1;shape=mxgraph.mockup.misc.mail2;strokeColor=#999999;" vertex="1" parent="cvbuqsYRhaTz-hlydLSl-135">
          <mxGeometry x="5" y="45" width="30" height="20" as="geometry" />
        </mxCell>
        <mxCell id="cvbuqsYRhaTz-hlydLSl-128" value="" style="verticalLabelPosition=bottom;shadow=0;dashed=0;align=center;html=1;verticalAlign=top;strokeWidth=1;shape=mxgraph.mockup.misc.mail2;strokeColor=#999999;" vertex="1" parent="cvbuqsYRhaTz-hlydLSl-135">
          <mxGeometry x="5" y="75" width="30" height="20" as="geometry" />
        </mxCell>
        <mxCell id="cvbuqsYRhaTz-hlydLSl-129" value="" style="verticalLabelPosition=bottom;shadow=0;dashed=0;align=center;html=1;verticalAlign=top;strokeWidth=1;shape=mxgraph.mockup.misc.mail2;strokeColor=#999999;" vertex="1" parent="cvbuqsYRhaTz-hlydLSl-135">
          <mxGeometry x="5" y="103.33000000000004" width="30" height="20" as="geometry" />
        </mxCell>
        <mxCell id="cvbuqsYRhaTz-hlydLSl-130" value="" style="verticalLabelPosition=bottom;shadow=0;dashed=0;align=center;html=1;verticalAlign=top;strokeWidth=1;shape=mxgraph.mockup.misc.mail2;strokeColor=#999999;" vertex="1" parent="cvbuqsYRhaTz-hlydLSl-135">
          <mxGeometry x="5" y="130.75" width="30" height="20" as="geometry" />
        </mxCell>
        <mxCell id="cvbuqsYRhaTz-hlydLSl-131" value="" style="verticalLabelPosition=bottom;shadow=0;dashed=0;align=center;html=1;verticalAlign=top;strokeWidth=1;shape=mxgraph.mockup.misc.mail2;strokeColor=#999999;" vertex="1" parent="cvbuqsYRhaTz-hlydLSl-135">
          <mxGeometry x="5" y="156.75" width="30" height="20" as="geometry" />
        </mxCell>
        <mxCell id="cvbuqsYRhaTz-hlydLSl-132" value="" style="verticalLabelPosition=bottom;shadow=0;dashed=0;align=center;html=1;verticalAlign=top;strokeWidth=1;shape=mxgraph.mockup.misc.mail2;strokeColor=#999999;" vertex="1" parent="cvbuqsYRhaTz-hlydLSl-135">
          <mxGeometry x="5" y="184.35000000000002" width="30" height="20" as="geometry" />
        </mxCell>
        <mxCell id="cvbuqsYRhaTz-hlydLSl-133" value="" style="verticalLabelPosition=bottom;shadow=0;dashed=0;align=center;html=1;verticalAlign=top;strokeWidth=1;shape=mxgraph.mockup.misc.mail2;strokeColor=#999999;" vertex="1" parent="cvbuqsYRhaTz-hlydLSl-135">
          <mxGeometry x="5" y="211.5" width="30" height="20" as="geometry" />
        </mxCell>
        <mxCell id="cvbuqsYRhaTz-hlydLSl-134" value="" style="verticalLabelPosition=bottom;shadow=0;dashed=0;align=center;html=1;verticalAlign=top;strokeWidth=1;shape=mxgraph.mockup.misc.mail2;strokeColor=#999999;" vertex="1" parent="cvbuqsYRhaTz-hlydLSl-135">
          <mxGeometry x="5" y="237.95000000000005" width="30" height="20" as="geometry" />
        </mxCell>
        <mxCell id="cvbuqsYRhaTz-hlydLSl-18" value="FIlaTransacional" style="outlineConnect=0;dashed=0;verticalLabelPosition=bottom;verticalAlign=top;align=center;html=1;shape=mxgraph.aws3.sqs;fillColor=#D9A741;gradientColor=none;" vertex="1" parent="1">
          <mxGeometry x="610" y="536.35" width="40" height="50" as="geometry" />
        </mxCell>
        <mxCell id="cvbuqsYRhaTz-hlydLSl-142" style="edgeStyle=orthogonalEdgeStyle;orthogonalLoop=1;jettySize=auto;html=1;exitX=0.5;exitY=1;exitDx=0;exitDy=0;" edge="1" parent="1" source="cvbuqsYRhaTz-hlydLSl-125" target="cvbuqsYRhaTz-hlydLSl-45">
          <mxGeometry relative="1" as="geometry">
            <Array as="points">
              <mxPoint x="510" y="425" />
              <mxPoint x="510" y="370" />
              <mxPoint x="285" y="370" />
            </Array>
          </mxGeometry>
        </mxCell>
        <mxCell id="cvbuqsYRhaTz-hlydLSl-146" value="Cloud Watch" style="outlineConnect=0;dashed=0;verticalLabelPosition=bottom;verticalAlign=top;align=center;html=1;shape=mxgraph.aws3.cloudwatch;fillColor=#759C3E;gradientColor=none;" vertex="1" parent="1">
          <mxGeometry x="-110" y="180" width="52.5" height="53" as="geometry" />
        </mxCell>
        <mxCell id="cvbuqsYRhaTz-hlydLSl-5" value="" style="outlineConnect=0;dashed=0;verticalLabelPosition=bottom;verticalAlign=top;align=center;html=1;shape=mxgraph.aws3.virtual_private_cloud;fillColor=#F58534;gradientColor=none;" vertex="1" parent="1">
          <mxGeometry x="335.79" y="160" width="64.21" height="45.83" as="geometry" />
        </mxCell>
        <mxCell id="cvbuqsYRhaTz-hlydLSl-149" value="&lt;div align=&quot;left&quot;&gt;- Os recursos EKS (Amazon Elastic Kubernetes Service) já possuem múltiplas zonas de disponibildiade built in.&lt;/div&gt;&lt;div align=&quot;left&quot;&gt;- Os recursos EKS (Amazon Elastic Kubernetes Service) já possuem o Cloud Watch built in (mostrado com icone no superior esquerdo).&lt;/div&gt;&lt;div align=&quot;left&quot;&gt;- Os recursos Amazon Dynamo DB já possuem a disponibilidade entre zonas built in.&lt;/div&gt;&lt;div align=&quot;left&quot;&gt;- Os recursos SQS (&lt;span&gt;Simple Queue Service&lt;/span&gt;) já possuem a disponibilidade entre zonas built in.&lt;/div&gt;" style="rounded=0;whiteSpace=wrap;html=1;" vertex="1" parent="1">
          <mxGeometry x="-480" y="20" width="1180" height="130" as="geometry" />
        </mxCell>
      </root>
    </mxGraphModel>
  </diagram>
</mxfile>
